<?xml version="1.0" encoding="UTF-8" standalone="no"?>
<!-- Created with Inkscape (http://www.inkscape.org/) -->

<svg
   xmlns:dc="http://purl.org/dc/elements/1.1/"
   xmlns:cc="http://creativecommons.org/ns#"
   xmlns:rdf="http://www.w3.org/1999/02/22-rdf-syntax-ns#"
   xmlns:svg="http://www.w3.org/2000/svg"
   xmlns="http://www.w3.org/2000/svg"
   xmlns:xlink="http://www.w3.org/1999/xlink"
   xmlns:sodipodi="http://sodipodi.sourceforge.net/DTD/sodipodi-0.dtd"
   xmlns:inkscape="http://www.inkscape.org/namespaces/inkscape"
   width="134.73334"
   height="27.655209"
   viewBox="0 0 35.648195 7.3171075"
   version="1.1"
   id="svg8"
   sodipodi:docname="brenntag.svg"
   inkscape:version="0.92.3 (2405546, 2018-03-11)">
  <defs
     id="defs2">
    <clipPath
       id="clip3">
      <path
         id="path550"
         d="m 81,11 h 35 V 21 H 81 Z m 0,0"
         inkscape:connector-curvature="0" />
    </clipPath>
    <clipPath
       id="clip4">
      <path
         id="path553"
         d="m 91.808594,11.882813 c -1.078125,0 -1.964844,0.07813 -2.636719,0.214843 -4.183594,0.792969 -7.425781,4.503907 -7.636719,8.855469 h 34.234374 v -9.070312 z m 0,0"
         inkscape:connector-curvature="0" />
    </clipPath>
    <linearGradient
       gradientTransform="matrix(34.232389,0,0,34.232389,81.535888,16.417423)"
       y2="0"
       x2="0.99999201"
       y1="0"
       x1="-2.59403e-005"
       gradientUnits="userSpaceOnUse"
       id="linear0">
      <stop
         id="stop556"
         style="stop-color:rgb(86.274719%,0%,24.705505%);stop-opacity:1;"
         offset="0" />
      <stop
         id="stop664"
         style="stop-color:rgb(86.274719%,0%,24.705505%);stop-opacity:1;"
         offset="0.496094" />
      <stop
         id="stop922"
         style="stop-color:rgb(100%,0%,0%);stop-opacity:0;"
         offset="1" />
    </linearGradient>
    <clipPath
       id="clip5">
      <path
         id="path925"
         d="M 57,23 H 92 V 33 H 57 Z m 0,0"
         inkscape:connector-curvature="0" />
    </clipPath>
    <clipPath
       id="clip6">
      <path
         id="path928"
         d="m 57.578125,23.148438 v 9.066406 h 23.960938 c 1.078125,0 1.964843,-0.07813 2.636718,-0.210938 4.183594,-0.796875 7.425782,-4.507812 7.636719,-8.855468 z m 0,0"
         inkscape:connector-curvature="0" />
    </clipPath>
    <linearGradient
       gradientTransform="matrix(-34.232679,0,0,-34.232679,91.813046,27.680787)"
       y2="0"
       x2="1.000011"
       y1="0"
       x1="1.35543e-006"
       gradientUnits="userSpaceOnUse"
       id="linear1">
      <stop
         id="stop931"
         style="stop-color:rgb(0%,20.391846%,44.7052%);stop-opacity:1;"
         offset="0" />

      <stop
         id="stop961"
         style="stop-color:rgb(0%,20.391846%,44.7052%);stop-opacity:1;"
         offset="0.351563" />
      <stop
         id="stop1293"
         style="stop-color:rgb(0%,0%,100%);stop-opacity:0;"
         offset="1" />
    </linearGradient>
    <clipPath
       id="clip2">
      <rect
         id="rect1296"
         height="37"
         width="132"
         y="0"
         x="0" />
    </clipPath>
    <g
       clip-path="url(#clip2)"
       id="surface215773">
      <g
         id="g1303"
         clip-path="url(#clip3)"
         style="clip-rule:nonzero">
        <g
           id="g1301"
           clip-path="url(#clip4)"
           style="clip-rule:nonzero">
          <path
             id="path1299"
             d="m 81.535156,11.882813 v 9.070312 h 34.234374 v -9.070312 z m 0,0"
             style="fill:url(#linear0);fill-rule:nonzero;stroke:none"
             inkscape:connector-curvature="0" />
        </g>
      </g>
      <g
         id="g1309"
         clip-path="url(#clip5)"
         style="clip-rule:nonzero">
        <g
           id="g1307"
           clip-path="url(#clip6)"
           style="clip-rule:nonzero">
          <path
             id="path1305"
             d="M 91.8125,32.214844 V 23.148438 H 57.578125 v 9.066406 z m 0,0"
             style="fill:url(#linear1);fill-rule:nonzero;stroke:none"
             inkscape:connector-curvature="0" />
        </g>
      </g>
      <path
         id="path1311"
         d="m 17.570313,16.855469 c 1.25,0 2.085937,0.363281 2.085937,1.265625 0,1.007812 -0.699219,1.652344 -2.03125,1.652344 -0.320312,0 -0.617187,-0.02734 -0.820312,-0.06641 l 0.148437,-2.835937 c 0.148438,-0.01563 0.417969,-0.01563 0.617188,-0.01563 m 0.484375,-3.777344 c 1.265625,0 1.601562,0.472656 1.601562,1.078125 0,1.019531 -0.753906,1.519531 -2.085937,1.519531 -0.199219,0 -0.375,0 -0.550782,-0.01563 l 0.136719,-2.554687 c 0.292969,-0.01172 0.605469,-0.02734 0.898438,-0.02734 m 3.417968,4.976563 c 0,-0.820313 -0.484375,-1.683594 -1.628906,-1.910157 v -0.02734 c 0.941406,-0.320313 1.628906,-1.140625 1.628906,-2.21875 0,-1.734375 -1.601562,-2.054688 -3.082031,-2.054688 -0.980469,0 -1.921875,0.02734 -2.886719,0.03906 l -0.484375,9.074218 c 0.859375,0.01563 1.71875,0.03906 2.578125,0.03906 1.832032,0 3.875,-0.671875 3.875,-2.941406"
         style="fill:#003370;fill-opacity:1;fill-rule:evenodd;stroke:none"
         inkscape:connector-curvature="0" />
      <path
         id="path1313"
         d="m 25.945313,13.050781 c 1.210937,0 1.71875,0.429688 1.71875,1.277344 0,0.847656 -0.75,1.414063 -1.933594,1.414063 -0.1875,0 -0.378906,-0.01563 -0.484375,-0.02734 l 0.148437,-2.636719 c 0.171875,-0.01172 0.386719,-0.02734 0.550782,-0.02734 m 3.667968,7.90625 -2,-3.347656 c -0.121093,-0.199219 -0.351562,-0.550781 -0.539062,-0.820312 1.480469,-0.320313 2.394531,-1.34375 2.394531,-2.6875 0,-1.910157 -1.5625,-2.273438 -3.253906,-2.273438 -0.835938,0 -1.667969,0.02734 -2.488281,0.05469 l -0.484375,9.074218 h 1.734375 l 0.1875,-3.777343 0.01563,-0.242188 H 25.3125 l 2.21875,4.019531 z m 0,0"
         style="fill:#003370;fill-opacity:1;fill-rule:evenodd;stroke:none"
         inkscape:connector-curvature="0" />
      <path
         id="path1315"
         d="m 36.066406,20.957031 0.06641,-1.261718 H 32.8125 l 0.148438,-2.824219 h 3.15625 l 0.07031,-1.210938 h -3.160156 l 0.132812,-2.527343 h 3.320313 l 0.07031,-1.25 h -5.042968 l -0.484375,9.074218 z m 0,0"
         style="fill:#003370;fill-opacity:1;fill-rule:evenodd;stroke:none"
         inkscape:connector-curvature="0" />
      <path
         id="path1317"
         d="m 44.332031,11.882813 -0.148437,2.6875 c -0.06641,1.105468 -0.105469,3.039062 -0.105469,4.117187 -0.230469,-0.5 -0.472656,-0.984375 -0.714844,-1.46875 l -2.660156,-5.335937 h -2.042969 l -0.484375,9.074218 h 1.664063 l 0.136719,-3.066406 c 0.03906,-1.035156 0.105468,-2.648437 0.105468,-3.601562 0.191407,0.417968 0.390625,0.832031 0.621094,1.289062 l 2.660156,5.378906 h 2.109375 l 0.484375,-9.074218 z m 0,0"
         style="fill:#003370;fill-opacity:1;fill-rule:evenodd;stroke:none"
         inkscape:connector-curvature="0" />
      <path
         id="path1319"
         d="m 54.0625,11.882813 -0.148437,2.6875 c -0.06641,1.105468 -0.109375,3.039062 -0.109375,4.117187 -0.226563,-0.5 -0.46875,-0.984375 -0.710938,-1.46875 l -2.660156,-5.335937 h -2.042969 l -0.484375,9.074218 h 1.667969 l 0.132812,-3.066406 c 0.03906,-1.035156 0.105469,-2.648437 0.105469,-3.601562 0.191406,0.417968 0.390625,0.832031 0.621094,1.289062 l 2.660156,5.378906 h 2.113281 L 55.6875,11.882813 Z m 0,0"
         style="fill:#003370;fill-opacity:1;fill-rule:evenodd;stroke:none"
         inkscape:connector-curvature="0" />
      <path
         id="path1321"
         d="m 57.042969,11.882813 -0.06641,1.277343 h 2.378906 l -0.414063,7.796875 h 1.71875 l 0.429688,-7.796875 h 2.378906 l 0.06641,-1.277343 z m 0,0"
         style="fill:#003370;fill-opacity:1;fill-rule:evenodd;stroke:none"
         inkscape:connector-curvature="0" />
      <path
         id="path1323"
         d="m 67.113281,13.496094 h 0.01563 c 0.06641,0.308594 0.171875,0.710937 0.296875,1.117187 l 0.925782,3.171875 H 65.5 l 1.210938,-3.171875 c 0.121093,-0.324218 0.296875,-0.78125 0.402343,-1.117187 m 4.074219,7.460937 -2.808594,-9.074218 h -2.058593 l -3.761719,9.074218 h 1.71875 l 0.765625,-1.988281 h 3.660156 l 0.589844,1.988281 z m 0,0"
         style="fill:#003370;fill-opacity:1;fill-rule:evenodd;stroke:none"
         inkscape:connector-curvature="0" />
      <path
         id="path1325"
         d="m 76.914063,13.066406 c 0.804687,0 1.828125,0.175782 2.511718,0.457032 l 0.308594,-1.359375 C 78.875,11.882813 78,11.773438 77.101563,11.773438 c -3.023438,0 -5.296875,1.75 -5.296875,5.175781 0,2.757812 1.476562,4.117187 4.355468,4.117187 1.089844,0 2.175782,-0.148437 3.199219,-0.539062 l 0.230469,-4.25 h -1.734375 l -0.175781,3.324219 c -0.390625,0.121093 -0.808594,0.171875 -1.238282,0.171875 -1.921875,0 -2.78125,-1.128907 -2.78125,-3.023438 0,-2.367187 1.4375,-3.683594 3.253907,-3.683594"
         style="fill:#003370;fill-opacity:1;fill-rule:evenodd;stroke:none"
         inkscape:connector-curvature="0" />
    </g>
  </defs>
  <sodipodi:namedview
     id="base"
     pagecolor="#00ffff"
     bordercolor="#666666"
     borderopacity="1.0"
     inkscape:pageopacity="0"
     inkscape:pageshadow="2"
     inkscape:zoom="5.6"
     inkscape:cx="78.44439"
     inkscape:cy="-5.5809614"
     inkscape:document-units="mm"
     inkscape:current-layer="layer1"
     showgrid="false"
     fit-margin-left="0.2"
     fit-margin-top="0.2"
     fit-margin-right="0.2"
     fit-margin-bottom="0.2"
     units="px"
     inkscape:window-width="1920"
     inkscape:window-height="1001"
     inkscape:window-x="-9"
     inkscape:window-y="-9"
     inkscape:window-maximized="1" />
  <metadata
     id="metadata5">
    <rdf:RDF>
      <cc:Work
         rdf:about="">
        <dc:format>image/svg+xml</dc:format>
        <dc:type
           rdf:resource="http://purl.org/dc/dcmitype/StillImage" />
        <dc:title></dc:title>
      </cc:Work>
    </rdf:RDF>
  </metadata>
  <g
     inkscape:label="Layer 1"
     inkscape:groupmode="layer"
     id="layer1"
     transform="translate(-52.440316,-149.30715)">
    <g
       id="g2268"
       transform="translate(122.40944,8.5526249)">
      <use
         id="use1510"
         transform="matrix(0.35277779,0,0,0.35277779,-75.214764,136.65403)"
         comp-op="multiply"
         xlink:href="#surface215773"
         x="0"
         y="0"
         width="100%"
         height="100%" />
    </g>
  </g>
</svg>
