<svg enable-background="new 0 0 91.4 16.4" version="1.1" viewBox="0 0 91.4 16.4" xml:space="preserve"
     xmlns="http://www.w3.org/2000/svg">
    <defs><style>.letter{fill: #00427a;}.emblem-inner,.emblem-border{fill: #f47920;}</style></defs>
    <path class="letter"
          d="m22.3 5.3h3.2v1.5c0.3-0.5 0.7-0.9 1.2-1.2 0.6-0.3 1.2-0.5 2-0.5s1.5 0.2 2 0.5c0.6 0.3 1 0.8 1.3 1.5 0.4-0.7 0.8-1.2 1.4-1.5 0.5-0.3 1.2-0.5 2-0.5 1.4 0 2.3 0.4 2.9 1.3 0.6 0.8 0.9 2 0.9 3.4v6.4h-3.3v-6.4c0-0.5-0.1-1-0.3-1.3s-0.6-0.5-1.1-0.5c-0.7 0-1.2 0.2-1.5 0.7-0.3 0.4-0.5 1-0.5 1.8v5.7h-3.3v-5.7c0-0.9-0.1-1.5-0.4-1.9s-0.6-0.6-1.2-0.6c-0.8 0-1.3 0.2-1.6 0.7s-0.4 1.2-0.4 2v5.4h-3.3v-10.8z"></path>
    <path class="letter" d="M41.5,5.3h3.3v10.8h-3.3V5.3z"></path>
    <path class="letter"
          d="m54.3 8.8c-0.2-0.2-0.4-0.4-0.7-0.6-0.3-0.1-0.6-0.2-0.9-0.2-0.8 0-1.5 0.3-2 0.8s-0.7 1.2-0.7 2 0.2 1.5 0.7 2 1.1 0.8 2 0.8c0.3 0 0.6-0.1 0.9-0.2 0.3-0.2 0.5-0.4 0.7-0.6l2.2 2.3c-0.5 0.5-1.1 0.8-1.8 1.1-0.7 0.2-1.4 0.4-2.1 0.4-1.7 0-3.1-0.5-4.3-1.6-1.1-1-1.7-2.4-1.7-4.1s0.6-3.1 1.7-4.1 2.6-1.6 4.3-1.6c0.7 0 1.4 0.1 2.1 0.3 0.7 0.1 1.3 0.5 1.8 1l-2.2 2.3z"></path>
    <path class="letter"
          d="m64.7 14.7c-0.4 0.5-0.9 1-1.5 1.2-0.6 0.3-1.3 0.4-2 0.4-1.1 0-2-0.3-2.7-0.9s-1.1-1.4-1.1-2.4c0-1.6 0.7-2.7 2.1-3.1 1.4-0.5 3.1-0.7 5.2-0.7 0-0.6-0.2-1-0.6-1.4s-0.9-0.5-1.5-0.5c-0.5 0-1 0.1-1.5 0.3s-0.9 0.5-1.2 1l-1.8-1.8c0.6-0.5 1.3-1 2.1-1.3s1.7-0.5 2.6-0.5c1.8 0 3.1 0.5 3.8 1.4s1.1 2.3 1.1 4.2v5.5h-3.1v-1.4zm-0.8-3.3c-0.8 0-1.6 0.1-2.3 0.3s-1 0.6-1 1.3c0 0.4 0.2 0.7 0.5 0.9s0.7 0.3 1.1 0.3c0.7 0 1.3-0.2 1.8-0.5 0.5-0.4 0.7-0.8 0.7-1.5v-0.7h-0.8z"></path>
    <path class="letter" d="M69.5,12.8L75.1,8h-5.5V5.3H79v3.2l-5.9,4.9h6v2.7h-9.6V12.8z"></path>
    <path class="letter"
          d="m91.4 16.1h-3.2v-1.5c-0.3 0.5-0.7 0.9-1.2 1.2-0.6 0.3-1.2 0.5-1.9 0.5-1.6 0-2.6-0.4-3.2-1.3s-0.8-2.1-0.8-3.8v-5.9h3.3v5.3c0 0.9 0.1 1.6 0.3 2.1s0.7 0.8 1.4 0.8c0.8 0 1.3-0.2 1.6-0.7s0.4-1.2 0.4-2v-5.5h3.3v10.8z"></path>
    <path class="letter" d="m45.1 1.9c0 1.1-0.9 1.9-1.9 1.9s-2-0.8-2-1.9 0.9-1.9 1.9-1.9 2 0.9 2 1.9z"></path>
    <path class="emblem-border" d="m8 0c-4.4 0-8 3.6-8 8s3.6 8 8 8h8v-8c0.1-4.4-3.5-8-8-8z"></path>
    <path class="emblem-inner" d="M8,1.1c-3.8,0-7,3.1-7,7c0,3.8,3.1,7,7,7h7V8C15,4.2,11.9,1.1,8,1.1z"></path>
</svg>
