<svg version="1.1" id="Layer_1" xmlns="http://www.w3.org/2000/svg" xmlns:xlink="http://www.w3.org/1999/xlink" x="0px"
     y="0px" viewBox="0 0 236.7 67.2" style="enable-background:new 0 0 236.7 67.2;" xml:space="preserve">
<style type="text/css">
	.st0{fill:#FFFFFF;}
	.st1{fill:#D92E27;}
	.st2{fill:#079B49;}
</style>
    <g>
<path class="st0" d="M152.8,24.4l3.9-4.4l-9.4-6.6l-5.8-4.1l-8.3-2.7L120.5,4l-5.2-0.1L114,7.1l-1.1-0.4v0.4v4.5
		c-7.4,1.6-13.6,6.3-17.2,12.7H4.4v25.1h91.3c3.6,6.4,9.8,11.1,17.2,12.7v4.5v0l2.5,0.3l3.8-4.3c9.4-0.3,17.6-5.6,21.9-13.3h91.3
		V24.4H152.8z"></path>

        <path class="st0" d="M115.3,67.1"></path>

</g>
    <path class="st1"
          d="M117.3,4.6c12.4,0.9,23.9,5.4,33.2,12.5l-6.4,7.2h5.9l6.8-7.8C145.1,6.3,129.7,0,112.9,0v24.3h4.4V4.6z"></path>

    <polygon class="st1" points="117.3,55 117.3,49.5 112.9,49.5 112.9,66.8 128,49.5 122.1,49.5 "></polygon>

    <path class="st2" d="M112.9,7.1v4.5c-7.4,1.6-13.6,6.3-17.2,12.7H4.4v25.1h91.3c3.6,6.4,9.8,11.1,17.2,12.7v4.5
	c-8.1-1.5-15.2-6.2-19.6-12.8H0v-34h93.2C97.7,13.3,104.7,8.6,112.9,7.1 M156.7,19.9l-3.9,4.4h79.4v25.1H141
	c-4.3,7.7-12.5,13-21.9,13.3l-3.8,4.3c1,0.1,2,0.1,3,0.1c10.4,0,19.7-5.3,25.1-13.3h93.2v-34H156.7z"></path>

    <path class="st2" d="M20.5,28h4.9v17.8H21l-7.6-9.7v9.7H8.6V28h4.6l7.3,9.4V28z M32.4,38.8h8.5v-3.9h-8.5v-2.7h9.4V28H27.5v17.8
	h14.4v-4.2h-9.5V38.8z M62.5,38.2L59,28h-4.2l-3.4,10.2l-3.1-10.2h-5.2L49,45.8h4.3l3.6-10.1l3.6,10.1h4.3l5.9-17.7h-5.1L62.5,38.2z
	 M87.9,28l-3.7,6.5L80.6,28H75l6.8,11.1v6.6h5v-6.7l6.8-11H87.9z M110.8,36.9L110.8,36.9c0,5.2-4.1,9.3-9.6,9.3s-9.5-4.1-9.5-9.2
	v-0.1c0-5.1,4.1-9.2,9.6-9.2C106.8,27.7,110.8,31.7,110.8,36.9 M105.8,36.9c0-2.6-1.9-4.8-4.6-4.8c-2.7,0-4.5,2.2-4.5,4.7v0.1
	c0,2.6,1.9,4.8,4.5,4.8C104,41.7,105.8,39.5,105.8,36.9L105.8,36.9z M124.5,39.6l4.2,6.2h-5.2l-3.6-5.4h-0.6h-2.1v5.4h-4.4V28h7.9
	c2.7,0,4.6,0.7,5.8,1.9c1,1,1.6,2.4,1.6,4.1v0.1C128.1,36.9,126.7,38.7,124.5,39.6 M123.2,34.4c0-1.4-1-2.1-2.7-2.1h-3.2v4.3h3.3
	C122.2,36.6,123.2,35.8,123.2,34.4L123.2,34.4z M167.3,34.3L167.3,34.3c0,4.2-3.2,6.4-7.6,6.4h-2.4v5.1h-4.9V28h7.6
	C164.4,28,167.3,30.4,167.3,34.3 M162.4,34.5c0-1.5-1.1-2.3-2.8-2.3h-2.3v4.7h2.3C161.3,36.9,162.4,36,162.4,34.5L162.4,34.5z
	 M168.7,45.8h4.8V28h-4.8V45.8z M175.3,32.2h8.6l-8.9,10v3.6h15.7v-4.2h-8.9l8.9-10V28h-15.4V32.2z M192.3,32.2h8.6l-8.9,10v3.6
	h15.7v-4.2h-8.9l8.9-10V28h-15.4V32.2z M228.4,45.8h-5.3l-1.3-3.1h-6.9l-1.3,3.1h-5.2L216,28h4.7L228.4,45.8z M220.4,38.8l-2-5l-2,5
	H220.4z M142.6,45.8h5.4l-7.7-10.3l6.6-7.5h-5.9l-6.1,7v-7h-4.9v17.8h4.9v-4.1l2.4-2.8L142.6,45.8z"></path>

    <polygon class="st1"
             points="119.4,16.5 119.4,10.7 118.5,10.7 118.5,9.8 121.3,9.8 121.3,10.7 120.4,10.7 120.4,16.5 "></polygon>

    <polygon class="st1" points="124,12.6 124,9.8 125,9.8 125,16.5 124,16.5 124,13.5 123,13.5 123,16.5 122,16.5 122,9.8 123,9.8
	123,12.6 "></polygon>

    <polygon class="st1" points="128.1,9.8 128.1,10.7 126.8,10.7 126.8,12.6 128,12.6 128,13.5 126.8,13.5 126.8,15.6 128.1,15.6
	128.1,16.5 125.8,16.5 125.8,9.8 "></polygon>

    <path class="st1" d="M120.3,24.4h-0.6c-0.8,0-1.3-0.4-1.3-1.3v-4.4c0-0.8,0.4-1.3,1.3-1.3h0.6c0.8,0,1.3,0.4,1.3,1.3v4.4
	C121.5,24,121.1,24.4,120.3,24.4 M120.1,18.4h-0.2c-0.3,0-0.4,0.1-0.4,0.4v4.3c0,0.3,0.1,0.4,0.4,0.4h0.2c0.3,0,0.4-0.1,0.4-0.4
	v-4.3C120.5,18.6,120.4,18.4,120.1,18.4"></path>

    <path class="st1" d="M125.2,22v2.3h-1v-2.3c0-0.3-0.1-0.4-0.4-0.4h-0.5v2.7h-1v-6.8h1.7c0.8,0,1.3,0.4,1.3,1.3v1.3
	c0,0.6-0.2,0.9-0.6,1C125,21.3,125.2,21.5,125.2,22 M123.8,18.5h-0.5v2.2h0.5c0.3,0,0.4-0.1,0.4-0.4v-1.4
	C124.2,18.6,124,18.5,123.8,18.5"></path>

    <rect x="125.9" y="17.6" class="st1" width="1" height="6.8"></rect>

    <path class="st1" d="M129.2,21.5v-0.9h1.5v2.5c0,0.8-0.4,1.3-1.3,1.3h-0.6c-0.8,0-1.3-0.4-1.3-1.3v-4.4c0-0.8,0.4-1.3,1.3-1.3h0.5
	c0.8,0,1.2,0.4,1.2,1.2v1.1h-1v-1c0-0.3-0.1-0.4-0.4-0.4h-0.2c-0.3,0-0.4,0.1-0.4,0.4v4.3c0,0.3,0.1,0.4,0.4,0.4h0.2
	c0.3,0,0.4-0.1,0.4-0.4v-1.6H129.2z"></path>

    <rect x="131.5" y="17.6" class="st1" width="1" height="6.8"></rect>

    <polygon class="st1" points="135.4,17.6 136.3,17.6 136.3,24.3 135.2,24.3 134.1,19.8 134.1,24.3 133.2,24.3 133.2,17.6 134.4,17.6
	135.4,21.8 "></polygon>

    <path class="st1"
          d="M140.2,24.3h-1l-0.1-1.1H138l-0.1,1.1h-1l1-6.8h1.4L140.2,24.3z M138.1,22.4h0.8l-0.4-3.4L138.1,22.4z"></path>

    <polygon class="st1" points="141.9,17.6 141.9,23.4 143.1,23.4 143.1,24.3 140.9,24.3 140.9,17.6 "></polygon>

</svg>
