<svg xmlns="http://www.w3.org/2000/svg" xmlns:xlink="http://www.w3.org/1999/xlink" viewBox="0 0 570.1 121.8">
    <style>
        .st0 {
        fill: #58595B;
        }

        .st1 {
        clip-path: url(#SVGID_2_);
        fill: none;
        stroke: #FFFFFF;
        stroke-width: 0.2835;
        stroke-linejoin: round;
        stroke-miterlimit: 10;
        }

        .st2 {
        fill: none;
        }

        .st3 {
        fill: #E8692E;
        }
    </style>
    <g id="text">
        <path class="st0"
              d="M212.5 91.3h-9.4V30.5h15.6c6.1 0 9.9 1.2 12.8 3.9 3.3 3.1 4.8 7.7 4.8 14.1 0 6.6-1.6 11.1-4.8 14.2-2.8 2.7-6.7 3.9-12.8 3.9h-6.2v24.7zm4.1-33.3c7.6 0 9.9-2.3 9.9-9.5 0-7.1-2.4-9.4-9.9-9.4h-4.1V58h4.1zM280.2 39.1H262v16.1h13.4v8.7H262v18.8h18.2v8.7h-27.5V30.5h27.5v8.6zM305.2 91.3h-9.4V30.5h14.7c5.6 0 9.1 1.1 12 3.6 3.6 3.1 5.5 7.8 5.5 13.8 0 7.7-2.7 13-8.2 15.8l8.9 27.6h-9.9l-8-25h-5.7v25zm3.5-33.7c4 0 5.8-.5 7.3-1.9 1.6-1.6 2.3-4 2.3-7.4 0-3.3-.7-5.7-2.3-7.3-1.5-1.5-3.3-1.9-7.3-1.9h-3.5v18.5h3.5zM368.4 47.4c-1.5-6-4.2-9-8-9-3.5 0-6.1 2.6-6.1 6.2 0 2.1.9 4.4 2.6 6.1 1.6 1.7 1.6 1.7 8 6.7 5.1 4 7 5.7 9 8.2 2.5 3 3.9 7 3.9 11.1 0 9.2-6.7 15.5-16.7 15.5-10.4 0-16.5-5.6-18.4-17.1l9-2.6c1.2 7.3 4.4 10.9 9.4 10.9 4.1 0 6.9-2.8 6.9-6.9 0-3.8-1.9-6.3-9-11.9-8.5-6.7-8.8-7-11.1-9.9-2.2-2.8-3.4-6.4-3.4-10.1 0-8.8 6.6-15 15.9-15 8.7 0 14.5 5.2 17.1 15.2l-9.1 2.6zM421.1 39.1h-18.2v16.1h13.4v8.7h-13.4v18.8h18.2v8.7h-27.5V30.5h27.5v8.6zM468.9 30.5v41.2c0 7.7-.9 11.6-3.5 15.1-2.6 3.6-7.1 5.5-12.6 5.5-5.6 0-10-1.9-12.7-5.5-2.6-3.5-3.5-7.4-3.5-15.1V30.5h9.4v42.8c0 7.2 1.9 10.1 6.8 10.1 4.7 0 6.7-2.9 6.7-10.1V30.5h9.4zM510.7 47.4c-1.5-6-4.2-9-8-9-3.5 0-6.1 2.6-6.1 6.2 0 2.1.9 4.4 2.6 6.1 1.6 1.7 1.6 1.7 8 6.7 5.1 4 7 5.7 9 8.2 2.5 3 3.9 7 3.9 11.1 0 9.2-6.7 15.5-16.7 15.5-10.4 0-16.5-5.6-18.4-17.1l9-2.6c1.2 7.3 4.4 10.9 9.4 10.9 4.1 0 6.9-2.8 6.9-6.9 0-3.8-1.9-6.3-9-11.9-8.5-6.7-8.8-7-11.1-9.9-2.2-2.8-3.4-6.4-3.4-10.1 0-8.8 6.6-15 15.9-15 8.7 0 14.5 5.2 17.1 15.2l-9.1 2.6zM560.7 47.4c-1.5-6-4.2-9-8-9-3.5 0-6.1 2.6-6.1 6.2 0 2.1.9 4.4 2.6 6.1 1.6 1.7 1.6 1.7 8 6.7 5.1 4 7 5.7 9 8.2 2.5 3 3.9 7 3.9 11.1 0 9.2-6.7 15.5-16.7 15.5-10.4 0-16.5-5.6-18.4-17.1l9-2.6c1.2 7.3 4.4 10.9 9.4 10.9 4.1 0 6.9-2.8 6.9-6.9 0-3.8-1.9-6.3-9-11.9-8.5-6.7-8.8-7-11.1-9.9-2.2-2.8-3.4-6.4-3.4-10.1 0-8.8 6.6-15 15.9-15 8.7 0 14.5 5.2 17.1 15.2l-9.1 2.6z"></path>
    </g>
    <g id="emblem">
        <defs>
            <path id="SVGID_1_" d="M102.4 89.6V32.2L52.7 3.5 3 32.2v57.4l49.7 28.7z"></path>
        </defs>
        <clipPath id="SVGID_2_">
            <use xlink:href="#SVGID_1_" overflow="visible"></use>
        </clipPath>
        <path class="st0"
              d="M52.7 3.5l49.7 28.7v57.4l-49.7 28.7L3 89.6V32.2L52.7 3.5m0-3.5l-1.5.9L1.5 29.6l-1.5.8V91.4l1.5.9L51.2 121l1.5.9 1.5-.9 49.7-28.7 1.5-.9V30.4l-1.5-.9L54.2.9 52.7 0z"></path>
        <g>
            <path class="st2"
                  d="M71.6 42.5v-.8l-4.4-.9 1.9 5.1 2.6-1.9c-.1-.5-.1-1-.1-1.5zM72.4 77.9L44 87.5c.1.6.2 1.2.2 1.8 0 .3 0 .7-.1 1l22.5 4.9L74.9 81c-1.1-.8-2-1.9-2.5-3.1zM41.3 61c0-2.7 1-5.2 2.5-7.2L33.7 40c-.5.1-1 .2-1.5.2-.8 0-1.5-.1-2.2-.3l-4.9 12.6L35.5 82c.4-.1.8-.1 1.3-.1h.8l7.3-12.7c-2.3-2-3.6-4.9-3.6-8.2zM28.8 39.4c-2.4-1.2-4.1-3.7-4.1-6.6 0-.3 0-.6.1-.9l-8.9-5.4 8.5 24.2 4.4-11.3zM17.7 71.3l16 11.3c.2-.1.4-.2.6-.2l-9.9-28.2-6.7 17.1zM71.8 75v-.5l-10.7-5.7C59 71 56 72.5 52.7 72.5c-.9 0-1.8-.1-2.6-.3L42.8 85c.3.4.6.9.8 1.4L72 76.7c-.1-.6-.2-1.1-.2-1.7zM78.9 49.9c-1.3 0-2.6-.4-3.6-1l-4 2.9 5.9 16c.6-.2 1.3-.3 2-.3 1 0 2 .2 2.9.6l8.5-15.9-6.3-4.7c-1.3 1.5-3.2 2.4-5.4 2.4zM75.9 81.6l-8 13.9 17.5 3.8-6.7-17c-1 0-1.9-.3-2.8-.7zM39.6 32.8c0 .3 0 .6-.1.9l25.8 5.5-11.9-32c-.2 0-.5.1-.7.1-.9 0-1.7-.3-2.3-.8L36.7 27c1.7 1.3 2.9 3.4 2.9 5.8zM71.8 40.5c.4-1.5 1.3-2.8 2.5-3.8L55 6.5c-.1.1-.2.2-.4.2l12.1 32.7 5.1 1.1zM74.7 69.1c.4-.3.9-.6 1.4-.8l-5.8-15.7-6.7 4.8c.4 1.1.6 2.4.6 3.7 0 .8-.1 1.6-.2 2.4l10.7 5.6zM39.3 34.9c-.2.5-.4 1.1-.7 1.6l10.2 13.9c1.2-.5 2.5-.7 3.9-.7 2.8 0 5.4 1 7.4 2.7l7.9-5.7-2.3-6.1-26.4-5.7zM8.3 91.9l7.9-20.1-13-9.2z"></path>
            <path class="st0" d="M3 61l11.4-35.3-1.6.9L3 57z"></path>
            <path class="st0"
                  d="M102.4 32.2l-.7-.4-10.4 19.4-6.2-4.6c.8-1.2 1.2-2.6 1.2-4.1 0-1.6-.5-3-1.3-4.2l7.2-12-5.3-3-7.2 11.9c-.3 0-.6-.1-.9-.1-1.3 0-2.6.4-3.6 1L55.8 5.6c.1-.1.1-.2.1-.2l-3.3-1.9-3.2 1.9c0 .1.1.1.1.2L35.7 26.3c-1-.6-2.2-.9-3.5-.9-1.5 0-3 .5-4.2 1.3l-7.5-4.6-6.1 3.5 9.4 26.7-7.1 18.2L3 61v8l4 22.9 2.1 1.2 8.1-20.6 15.3 10.8c-1.9 1.3-3.2 3.5-3.2 6l-16 6.3 6.7 3.9 11.7-4.6c1.3 1.2 3.1 2 5.1 2 1 0 2-.2 2.8-.6l10.5 20.5 1.9 1.1-11.3-22.2c1.5-.9 2.7-2.4 3.2-4.1L66 96.4l-12.3 21.4 2.1-1.2 11.5-19.9 16.7 3.6 8.2-4.8 10.3-29.7v-3.7l-11.8 34-6.2-15.9c1.3-1.3 2.2-3.2 2.2-5.2 0-2.6-1.3-4.9-3.4-6.2L91.7 53l10.8 8v-1.5l-10.2-7.6 10.2-19v-.7zM8.3 91.9L3.2 62.6l13 9.1-7.9 20.2zM55 6.5l19.3 30.2c-1.2 1-2.1 2.3-2.5 3.8l-5.1-1.1L54.6 6.8c.1-.1.2-.2.4-.3zm8.5 50.9l6.7-4.8L76 68.3c-.5.2-1 .5-1.4.8l-10.8-5.7c.2-.8.2-1.5.2-2.4.1-1.2-.1-2.5-.5-3.6zm-3.4-5c-2-1.7-4.6-2.7-7.4-2.7-1.4 0-2.7.3-3.9.7l-10.2-14c.3-.5.5-1 .7-1.6l26.5 5.6 2.3 6.1-8 5.9zm9-6.5l-1.9-5.1 4.4.9v.8c0 .5.1 1 .2 1.5l-2.7 1.9zM50.4 6.5c.6.5 1.4.8 2.3.8.2 0 .5 0 .7-.1l11.8 31.9-25.8-5.5c0-.3.1-.6.1-.9 0-2.4-1.1-4.5-2.9-5.8L50.4 6.5zm-34.5 20l8.9 5.4c0 .3-.1.6-.1.9 0 2.9 1.7 5.4 4.1 6.6l-4.4 11.3-8.5-24.2zm17.8 56.1l-16-11.3 6.7-17.2 9.9 28.2-.6.3zm3.8-.7h-.8c-.4 0-.8 0-1.3.1L25.1 52.4 30 39.8c.7.2 1.4.3 2.2.3.5 0 1-.1 1.5-.2l10.2 13.9c-1.6 2-2.5 4.4-2.5 7.2 0 3.2 1.3 6.1 3.5 8.2l-7.4 12.7zm6.1 4.5c-.2-.5-.5-1-.8-1.4l7.4-12.8c.8.2 1.7.3 2.6.3 3.3 0 6.3-1.4 8.4-3.7l10.7 5.7v.5c0 .6.1 1.2.2 1.7l-28.5 9.7zm23 8.9l-22.5-4.9c0-.3.1-.7.1-1 0-.6-.1-1.2-.2-1.8l28.4-9.7c.5 1.3 1.4 2.3 2.5 3.1l-8.3 14.3zm18.8 4l-17.5-3.8 8-13.9c.9.4 1.8.7 2.8.7l6.7 17zm-3.3-31.1c-.9-.4-1.9-.6-2.9-.6-.7 0-1.4.1-2 .3l-5.9-16 4-2.9c1.1.6 2.3 1 3.6 1 2.1 0 4-.9 5.4-2.3l6.3 4.7-8.5 15.8z"></path>
        </g>
    </g>
    <path class="st3" d="M151.3 30.5h2.1v60.8h-2.1z" id="divider"></path>
</svg>
